<svg xmlns="http://www.w3.org/2000/svg" version="1.1" xmlns:xlink="http://www.w3.org/1999/xlink" xmlns:svgjs="http://svgjs.dev/svgjs" width="1500" height="1500" viewBox="0 0 1500 1500"><rect width="1500" height="1500" fill="#000000"></rect><g transform="matrix(0.6666666666666666,0,0,0.6666666666666666,248.8395102040816,242.36774193548388)"><svg viewBox="0 0 245 248" data-background-color="#000000" preserveAspectRatio="xMidYMid meet" height="1518" width="1500" xmlns="http://www.w3.org/2000/svg" xmlns:xlink="http://www.w3.org/1999/xlink"><g id="tight-bounds" transform="matrix(1,0,0,1,0.2843200000000081,0.4000000000000057)"><svg viewBox="0 0 244.43135999999998 247.2" height="247.2" width="244.43135999999998"><rect width="244.43135999999998" height="247.2" fill="url(#cb1521a5-8967-4ba0-81b5-bbb02de1dd54)" mask="url(#858bc37d-628f-47c1-85c6-5e47a17aa6f3)" data-fill-palette-color="tertiary"></rect><g><svg></svg></g><g><svg viewBox="0 0 244.43135999999998 247.2" height="247.2" width="244.43135999999998"><g transform="matrix(1,0,0,1,0,107.01562307792813)"><svg viewBox="0 0 244.43135999999998 33.16875384414372" height="33.16875384414372" width="244.43135999999998"><g><svg viewBox="0 0 244.43135999999998 33.16875384414372" height="33.16875384414372" width="244.43135999999998"><g><svg viewBox="0 0 244.43135999999998 33.16875384414372" height="33.16875384414372" width="244.43135999999998"><g><svg viewBox="0 0 244.43135999999998 33.16875384414372" height="33.16875384414372" width="244.43135999999998"><g id="textblocktransform"><svg viewBox="0 0 244.43135999999998 33.16875384414372" height="33.16875384414372" width="244.43135999999998" id="textblock"><g><svg viewBox="0 0 244.43135999999998 33.16875384414372" height="33.16875384414372" width="244.43135999999998"><g transform="matrix(1,0,0,1,0,0)"><svg width="244.43135999999998" viewBox="0.49 -35.01 261.57 35.5" height="33.16875384414372" data-palette-color="url(#a53c7b88-8fcf-4fa1-8d06-9cf4fc0679bd)"></svg></g></svg></g></svg></g></svg></g><g></g></svg></g></svg></g></svg></g><path d="M0 101.016L0 1 244.431 1 244.431 101.016 241.44 101.016 241.44 3.991 2.991 3.991 2.991 101.016 0 101.016M0 146.184L0 246.2 244.431 246.2 244.431 146.184 241.44 146.184 241.44 243.209 2.991 243.209 2.991 146.184 0 146.184" fill="url(#cb1521a5-8967-4ba0-81b5-bbb02de1dd54)" stroke="transparent" data-fill-palette-color="tertiary"></path></svg></g><defs></defs><mask id="81525ea0-59ab-4967-b0bc-d7468a52249a"><g id="SvgjsG3233"><svg viewBox="0 0 244.43135999999998 247.2" height="247.2" width="244.43135999999998"><g><svg></svg></g><g><svg viewBox="0 0 244.43135999999998 247.2" height="247.2" width="244.43135999999998"><g transform="matrix(1,0,0,1,0,107.01562307792813)"><svg viewBox="0 0 244.43135999999998 33.16875384414372" height="33.16875384414372" width="244.43135999999998"><g><svg viewBox="0 0 244.43135999999998 33.16875384414372" height="33.16875384414372" width="244.43135999999998"><g><svg viewBox="0 0 244.43135999999998 33.16875384414372" height="33.16875384414372" width="244.43135999999998"><g><svg viewBox="0 0 244.43135999999998 33.16875384414372" height="33.16875384414372" width="244.43135999999998"><g id="SvgjsG3232"><svg viewBox="0 0 244.43135999999998 33.16875384414372" height="33.16875384414372" width="244.43135999999998" id="SvgjsSvg3231"><g><svg viewBox="0 0 244.43135999999998 33.16875384414372" height="33.16875384414372" width="244.43135999999998"><g transform="matrix(1,0,0,1,0,0)"><svg width="244.43135999999998" viewBox="0.49 -35.01 261.57 35.5" height="33.16875384414372" data-palette-color="url(#a53c7b88-8fcf-4fa1-8d06-9cf4fc0679bd)"><path d="M19.46 0L17.14-8.15 6.05-8.15 3.76 0 0.49 0 10.74-35.01 12.4-35.01 22.71 0 19.46 0ZM11.5-27.29L6.91-11.16 16.31-11.16 11.69-27.29 11.6-28.59 11.5-27.29ZM55.59 0L52.59 0 52.59-18.31Q52.59-19.21 52.24-20.01 51.9-20.8 51.32-21.39 50.73-21.97 49.94-22.31 49.14-22.66 48.24-22.66L48.24-22.66 46.75-22.66Q45.85-22.66 45.05-22.31 44.26-21.97 43.66-21.39 43.06-20.8 42.72-20.01 42.38-19.21 42.38-18.31L42.38-18.31 42.38 0 39.4 0 39.4-18.31Q39.4-19.21 39.06-20.01 38.72-20.8 38.12-21.39 37.52-21.97 36.73-22.31 35.94-22.66 35.03-22.66L35.03-22.66 33.54-22.66Q32.64-22.66 31.85-22.31 31.05-21.97 30.47-21.39 29.88-20.8 29.54-20.01 29.2-19.21 29.2-18.31L29.2-18.31 29.2 0 26.19 0 26.19-25 27.19-25 28.83-22.46Q29.86-23.85 31.41-24.67 32.96-25.49 34.79-25.49L34.79-25.49 35.03-25.49Q37.16-25.49 38.86-24.44 40.57-23.39 41.5-21.66L41.5-21.66Q41.97-22.51 42.65-23.22 43.33-23.93 44.16-24.43 44.99-24.93 45.97-25.21 46.95-25.49 48-25.49L48-25.49 48.24-25.49Q49.75-25.49 51.1-24.91 52.44-24.34 53.44-23.34 54.44-22.34 55.01-21 55.59-19.65 55.59-18.14L55.59-18.14 55.59 0ZM78.29 0L77.29 0 75.63-2.49Q74.6-1.15 73.07-0.33 71.53 0.49 69.7 0.49L69.7 0.49 68.94 0.49Q67.43 0.49 66.08-0.09 64.74-0.66 63.74-1.66 62.74-2.66 62.17-4 61.59-5.35 61.59-6.86L61.59-6.86 61.59-7.1Q61.59-8.62 62.17-9.96 62.74-11.3 63.74-12.3 64.74-13.31 66.08-13.88 67.43-14.45 68.94-14.45L68.94-14.45 75.29-14.45 75.29-18.31Q75.29-19.21 74.95-20.01 74.6-20.8 74.02-21.39 73.43-21.97 72.64-22.31 71.85-22.66 70.94-22.66L70.94-22.66 69.18-22.66Q68.28-22.66 67.49-22.31 66.69-21.97 66.11-21.39 65.52-20.8 65.18-20.01 64.84-19.21 64.84-18.31L64.84-18.31 64.84-17.41 61.84-17.9 61.84-18.14Q61.84-19.65 62.41-21 62.98-22.34 63.98-23.34 64.99-24.34 66.33-24.91 67.67-25.49 69.18-25.49L69.18-25.49 70.94-25.49Q72.46-25.49 73.8-24.91 75.14-24.34 76.14-23.34 77.14-22.34 77.72-21 78.29-19.65 78.29-18.14L78.29-18.14 78.29 0ZM75.29-6.69L75.29-12.11 68.94-12.11Q68.04-12.11 67.24-11.77 66.45-11.43 65.86-10.83 65.28-10.23 64.94-9.44 64.59-8.64 64.59-7.74L64.59-7.74 64.59-6.69Q64.59-5.79 64.94-4.99 65.28-4.2 65.86-3.61 66.45-3.03 67.24-2.69 68.04-2.34 68.94-2.34L68.94-2.34 70.94-2.34Q71.85-2.34 72.64-2.69 73.43-3.03 74.02-3.61 74.6-4.2 74.95-4.99 75.29-5.79 75.29-6.69L75.29-6.69ZM94.65-22.14L91.64-22.14Q90.74-22.14 89.95-21.8 89.15-21.46 88.57-20.87 87.98-20.29 87.64-19.49 87.3-18.7 87.3-17.8L87.3-17.8 87.3 0 84.29 0 84.29-25 85.3-25 86.93-22.46Q87.96-23.85 89.51-24.67 91.06-25.49 92.89-25.49L92.89-25.49 94.65-25.49 94.65-22.14ZM139.54-25L131.19 0 129.55 0 123.69-18.85 123.6-20.14 123.5-18.85 117.64 0 115.98 0 107.63-25 110.68-25 116.64-6.1 116.74-4.81 116.83-6.1 122.69-25 124.5-25 130.33-6.1 130.43-4.81 130.53-6.1 136.49-25 139.54-25ZM159.75-6.86L159.75-6.86Q159.75-5.35 159.18-4 158.6-2.66 157.6-1.66 156.6-0.66 155.26-0.09 153.92 0.49 152.4 0.49L152.4 0.49 150.4 0.49Q148.89 0.49 147.54-0.09 146.2-0.66 145.2-1.66 144.2-2.66 143.63-4 143.05-5.35 143.05-6.86L143.05-6.86 143.05-18.14Q143.05-19.65 143.63-21 144.2-22.34 145.2-23.34 146.2-24.34 147.54-24.91 148.89-25.49 150.4-25.49L150.4-25.49 152.4-25.49Q153.92-25.49 155.26-24.91 156.6-24.34 157.6-23.34 158.6-22.34 159.18-21 159.75-19.65 159.75-18.14L159.75-18.14 159.75-12.26 146.05-12.26 146.05-6.69Q146.05-5.79 146.4-4.99 146.74-4.2 147.32-3.61 147.91-3.03 148.7-2.69 149.5-2.34 150.4-2.34L150.4-2.34 152.4-2.34Q153.31-2.34 154.1-2.69 154.89-3.03 155.48-3.61 156.06-4.2 156.41-4.99 156.75-5.79 156.75-6.69L156.75-6.69 156.75-8.35 159.75-7.86 159.75-6.86ZM156.75-14.6L156.75-18.31Q156.75-19.21 156.41-20.01 156.06-20.8 155.48-21.39 154.89-21.97 154.1-22.31 153.31-22.66 152.4-22.66L152.4-22.66 150.4-22.66Q149.5-22.66 148.7-22.31 147.91-21.97 147.32-21.39 146.74-20.8 146.4-20.01 146.05-19.21 146.05-18.31L146.05-18.31 146.05-14.6 156.75-14.6ZM182.45-6.86L182.45-6.86Q182.45-5.35 181.88-4 181.31-2.66 180.3-1.66 179.3-0.66 177.96-0.09 176.62 0.49 175.1 0.49L175.1 0.49 173.1 0.49Q171.59 0.49 170.25-0.09 168.9-0.66 167.9-1.66 166.9-2.66 166.33-4 165.75-5.35 165.75-6.86L165.75-6.86 165.75-35.01 168.76-35.01 168.76-22.9Q169.78-24.12 171.22-24.8 172.66-25.49 174.35-25.49L174.35-25.49 175.1-25.49Q176.62-25.49 177.96-24.91 179.3-24.34 180.3-23.34 181.31-22.34 181.88-21 182.45-19.65 182.45-18.14L182.45-18.14 182.45-6.86ZM179.45-6.69L179.45-18.31Q179.45-19.21 179.11-20.01 178.77-20.8 178.18-21.39 177.59-21.97 176.8-22.31 176.01-22.66 175.1-22.66L175.1-22.66 173.1-22.66Q172.2-22.66 171.41-22.31 170.61-21.97 170.03-21.39 169.44-20.8 169.1-20.01 168.76-19.21 168.76-18.31L168.76-18.31 168.76-6.69Q168.76-5.79 169.1-4.99 169.44-4.2 170.03-3.61 170.61-3.03 171.41-2.69 172.2-2.34 173.1-2.34L173.1-2.34 175.1-2.34Q176.01-2.34 176.8-2.69 177.59-3.03 178.18-3.61 178.77-4.2 179.11-4.99 179.45-5.79 179.45-6.69L179.45-6.69ZM216.65 0L215.65 0 213.99-2.54Q212.97-1.15 211.43-0.33 209.89 0.49 208.06 0.49L208.06 0.49 207.3 0.49Q205.79 0.49 204.45-0.09 203.1-0.66 202.1-1.66 201.1-2.66 200.53-4 199.95-5.35 199.95-6.86L199.95-6.86 199.95-18.14Q199.95-19.65 200.53-21 201.1-22.34 202.1-23.34 203.1-24.34 204.45-24.91 205.79-25.49 207.3-25.49L207.3-25.49 208.06-25.49Q209.74-25.49 211.18-24.8 212.62-24.12 213.65-22.9L213.65-22.9 213.65-35.01 216.65-35.01 216.65 0ZM213.65-6.69L213.65-18.31Q213.65-19.21 213.31-20.01 212.97-20.8 212.38-21.39 211.79-21.97 211-22.31 210.21-22.66 209.3-22.66L209.3-22.66 207.3-22.66Q206.4-22.66 205.6-22.31 204.81-21.97 204.23-21.39 203.64-20.8 203.3-20.01 202.96-19.21 202.96-18.31L202.96-18.31 202.96-6.69Q202.96-5.79 203.3-4.99 203.64-4.2 204.23-3.61 204.81-3.03 205.6-2.69 206.4-2.34 207.3-2.34L207.3-2.34 209.3-2.34Q210.21-2.34 211-2.69 211.79-3.03 212.38-3.61 212.97-4.2 213.31-4.99 213.65-5.79 213.65-6.69L213.65-6.69ZM239.35-6.86L239.35-6.86Q239.35-5.35 238.78-4 238.21-2.66 237.21-1.66 236.21-0.66 234.86-0.09 233.52 0.49 232.01 0.49L232.01 0.49 230 0.49Q228.49 0.49 227.15-0.09 225.81-0.66 224.8-1.66 223.8-2.66 223.23-4 222.66-5.35 222.66-6.86L222.66-6.86 222.66-18.14Q222.66-19.65 223.23-21 223.8-22.34 224.8-23.34 225.81-24.34 227.15-24.91 228.49-25.49 230-25.49L230-25.49 232.01-25.49Q233.52-25.49 234.86-24.91 236.21-24.34 237.21-23.34 238.21-22.34 238.78-21 239.35-19.65 239.35-18.14L239.35-18.14 239.35-12.26 225.66-12.26 225.66-6.69Q225.66-5.79 226-4.99 226.34-4.2 226.93-3.61 227.51-3.03 228.31-2.69 229.1-2.34 230-2.34L230-2.34 232.01-2.34Q232.91-2.34 233.7-2.69 234.5-3.03 235.08-3.61 235.67-4.2 236.01-4.99 236.35-5.79 236.35-6.69L236.35-6.69 236.35-8.35 239.35-7.86 239.35-6.86ZM236.35-14.6L236.35-18.31Q236.35-19.21 236.01-20.01 235.67-20.8 235.08-21.39 234.5-21.97 233.7-22.31 232.91-22.66 232.01-22.66L232.01-22.66 230-22.66Q229.1-22.66 228.31-22.31 227.51-21.97 226.93-21.39 226.34-20.8 226-20.01 225.66-19.21 225.66-18.31L225.66-18.31 225.66-14.6 236.35-14.6ZM262.06-25L253.2 0 251.71 0 242.84-25 245.85-25 252.37-6.05 252.46-4.76 252.56-6.05 259.05-25 262.06-25Z" opacity="1" transform="matrix(1,0,0,1,0,0)" fill="white" class="wordmark-text-0" id="SvgjsPath3230"></path></svg></g></svg></g></svg></g></svg></g><g></g></svg></g></svg></g></svg></g><path d="M0 101.016L0 1 244.431 1 244.431 101.016 241.44 101.016 241.44 3.991 2.991 3.991 2.991 101.016 0 101.016M0 146.184L0 246.2 244.431 246.2 244.431 146.184 241.44 146.184 241.44 243.209 2.991 243.209 2.991 146.184 0 146.184" fill="black" stroke="transparent"></path></svg></g><defs><mask></mask></defs></svg><rect width="244.43135999999998" height="247.2" fill="black" stroke="none" visibility="hidden"></rect></g></mask><linearGradient x1="0.054" x2="0.941" y1="0.5" y2="0.5" id="a53c7b88-8fcf-4fa1-8d06-9cf4fc0679bd"><stop stop-color="#8c8c8c" offset="0"></stop><stop stop-color="#e3e4e5" offset="0.498"></stop><stop stop-color="#8c8c8c" offset="1"></stop></linearGradient><rect width="244.43135999999998" height="247.2" fill="url(#a53c7b88-8fcf-4fa1-8d06-9cf4fc0679bd)" mask="url(#81525ea0-59ab-4967-b0bc-d7468a52249a)" data-fill-palette-color="primary"></rect><mask id="858bc37d-628f-47c1-85c6-5e47a17aa6f3"><g id="SvgjsG3256"><svg viewBox="0 0 244.43135999999998 247.2" height="247.2" width="244.43135999999998"><g><svg></svg></g><g><svg viewBox="0 0 244.43135999999998 247.2" height="247.2" width="244.43135999999998"><g transform="matrix(1,0,0,1,0,107.01562307792813)"><svg viewBox="0 0 244.43135999999998 33.16875384414372" height="33.16875384414372" width="244.43135999999998"><g><svg viewBox="0 0 244.43135999999998 33.16875384414372" height="33.16875384414372" width="244.43135999999998"><g><svg viewBox="0 0 244.43135999999998 33.16875384414372" height="33.16875384414372" width="244.43135999999998"><g><svg viewBox="0 0 244.43135999999998 33.16875384414372" height="33.16875384414372" width="244.43135999999998"><g id="SvgjsG3255"><svg viewBox="0 0 244.43135999999998 33.16875384414372" height="33.16875384414372" width="244.43135999999998" id="SvgjsSvg3254"><g><svg viewBox="0 0 244.43135999999998 33.16875384414372" height="33.16875384414372" width="244.43135999999998"><g transform="matrix(1,0,0,1,0,0)"><svg width="244.43135999999998" viewBox="0.49 -35.01 261.57 35.5" height="33.16875384414372" data-palette-color="url(#a53c7b88-8fcf-4fa1-8d06-9cf4fc0679bd)"></svg></g></svg></g></svg></g></svg></g><g></g></svg></g></svg></g></svg></g><path d="M0 101.016L0 1 244.431 1 244.431 101.016 241.44 101.016 241.44 3.991 2.991 3.991 2.991 101.016 0 101.016M0 146.184L0 246.2 244.431 246.2 244.431 146.184 241.44 146.184 241.44 243.209 2.991 243.209 2.991 146.184 0 146.184" fill="white" stroke="transparent"></path></svg></g><defs><mask></mask></defs><mask><g id="SvgjsG3253"><svg viewBox="0 0 244.43135999999998 247.2" height="247.2" width="244.43135999999998"><g><svg></svg></g><g><svg viewBox="0 0 244.43135999999998 247.2" height="247.2" width="244.43135999999998"><g transform="matrix(1,0,0,1,0,107.01562307792813)"><svg viewBox="0 0 244.43135999999998 33.16875384414372" height="33.16875384414372" width="244.43135999999998"><g><svg viewBox="0 0 244.43135999999998 33.16875384414372" height="33.16875384414372" width="244.43135999999998"><g><svg viewBox="0 0 244.43135999999998 33.16875384414372" height="33.16875384414372" width="244.43135999999998"><g><svg viewBox="0 0 244.43135999999998 33.16875384414372" height="33.16875384414372" width="244.43135999999998"><g id="SvgjsG3252"><svg viewBox="0 0 244.43135999999998 33.16875384414372" height="33.16875384414372" width="244.43135999999998" id="SvgjsSvg3251"><g><svg viewBox="0 0 244.43135999999998 33.16875384414372" height="33.16875384414372" width="244.43135999999998"><g transform="matrix(1,0,0,1,0,0)"><svg width="244.43135999999998" viewBox="0.49 -35.01 261.57 35.5" height="33.16875384414372" data-palette-color="url(#a53c7b88-8fcf-4fa1-8d06-9cf4fc0679bd)"><path d="M19.46 0L17.14-8.15 6.05-8.15 3.76 0 0.49 0 10.74-35.01 12.4-35.01 22.71 0 19.46 0ZM11.5-27.29L6.91-11.16 16.31-11.16 11.69-27.29 11.6-28.59 11.5-27.29ZM55.59 0L52.59 0 52.59-18.31Q52.59-19.21 52.24-20.01 51.9-20.8 51.32-21.39 50.73-21.97 49.94-22.31 49.14-22.66 48.24-22.66L48.24-22.66 46.75-22.66Q45.85-22.66 45.05-22.31 44.26-21.97 43.66-21.39 43.06-20.8 42.72-20.01 42.38-19.21 42.38-18.31L42.38-18.31 42.38 0 39.4 0 39.4-18.31Q39.4-19.21 39.06-20.01 38.72-20.8 38.12-21.39 37.52-21.97 36.73-22.31 35.94-22.66 35.03-22.66L35.03-22.66 33.54-22.66Q32.64-22.66 31.85-22.31 31.05-21.97 30.47-21.39 29.88-20.8 29.54-20.01 29.2-19.21 29.2-18.31L29.2-18.31 29.2 0 26.19 0 26.19-25 27.19-25 28.83-22.46Q29.86-23.85 31.41-24.67 32.96-25.49 34.79-25.49L34.79-25.49 35.03-25.49Q37.16-25.49 38.86-24.44 40.57-23.39 41.5-21.66L41.5-21.66Q41.97-22.51 42.65-23.22 43.33-23.93 44.16-24.43 44.99-24.93 45.97-25.21 46.95-25.49 48-25.49L48-25.49 48.24-25.49Q49.75-25.49 51.1-24.91 52.44-24.34 53.44-23.34 54.44-22.34 55.01-21 55.59-19.65 55.59-18.14L55.59-18.14 55.59 0ZM78.29 0L77.29 0 75.63-2.49Q74.6-1.15 73.07-0.33 71.53 0.49 69.7 0.49L69.7 0.49 68.94 0.49Q67.43 0.49 66.08-0.09 64.74-0.66 63.74-1.66 62.74-2.66 62.17-4 61.59-5.35 61.59-6.86L61.59-6.86 61.59-7.1Q61.59-8.62 62.17-9.96 62.74-11.3 63.74-12.3 64.74-13.31 66.08-13.88 67.43-14.45 68.94-14.45L68.94-14.45 75.29-14.45 75.29-18.31Q75.29-19.21 74.95-20.01 74.6-20.8 74.02-21.39 73.43-21.97 72.64-22.31 71.85-22.66 70.94-22.66L70.94-22.66 69.18-22.66Q68.28-22.66 67.49-22.31 66.69-21.97 66.11-21.39 65.52-20.8 65.18-20.01 64.84-19.21 64.84-18.31L64.84-18.31 64.84-17.41 61.84-17.9 61.84-18.14Q61.84-19.65 62.41-21 62.98-22.34 63.98-23.34 64.99-24.34 66.33-24.91 67.67-25.49 69.18-25.49L69.18-25.49 70.94-25.49Q72.46-25.49 73.8-24.91 75.14-24.34 76.14-23.34 77.14-22.34 77.72-21 78.29-19.65 78.29-18.14L78.29-18.14 78.29 0ZM75.29-6.69L75.29-12.11 68.94-12.11Q68.04-12.11 67.24-11.77 66.45-11.43 65.86-10.83 65.28-10.23 64.94-9.44 64.59-8.64 64.59-7.74L64.59-7.74 64.59-6.69Q64.59-5.79 64.94-4.99 65.28-4.2 65.86-3.61 66.45-3.03 67.24-2.69 68.04-2.34 68.94-2.34L68.94-2.34 70.94-2.34Q71.85-2.34 72.64-2.69 73.43-3.03 74.02-3.61 74.6-4.2 74.95-4.99 75.29-5.79 75.29-6.69L75.29-6.69ZM94.65-22.14L91.64-22.14Q90.74-22.14 89.95-21.8 89.15-21.46 88.57-20.87 87.98-20.29 87.64-19.49 87.3-18.7 87.3-17.8L87.3-17.8 87.3 0 84.29 0 84.29-25 85.3-25 86.93-22.46Q87.96-23.85 89.51-24.67 91.06-25.49 92.89-25.49L92.89-25.49 94.65-25.49 94.65-22.14ZM139.54-25L131.19 0 129.55 0 123.69-18.85 123.6-20.14 123.5-18.85 117.64 0 115.98 0 107.63-25 110.68-25 116.64-6.1 116.74-4.81 116.83-6.1 122.69-25 124.5-25 130.33-6.1 130.43-4.81 130.53-6.1 136.49-25 139.54-25ZM159.75-6.86L159.75-6.86Q159.75-5.35 159.18-4 158.6-2.66 157.6-1.66 156.6-0.66 155.26-0.09 153.92 0.49 152.4 0.49L152.4 0.49 150.4 0.49Q148.89 0.49 147.54-0.09 146.2-0.66 145.2-1.66 144.2-2.66 143.63-4 143.05-5.35 143.05-6.86L143.05-6.86 143.05-18.14Q143.05-19.65 143.63-21 144.2-22.34 145.2-23.34 146.2-24.34 147.54-24.91 148.89-25.49 150.4-25.49L150.4-25.49 152.4-25.49Q153.92-25.49 155.26-24.91 156.6-24.34 157.6-23.34 158.6-22.34 159.18-21 159.75-19.65 159.75-18.14L159.75-18.14 159.75-12.26 146.05-12.26 146.05-6.69Q146.05-5.79 146.4-4.99 146.74-4.2 147.32-3.61 147.91-3.03 148.7-2.69 149.5-2.34 150.4-2.34L150.4-2.34 152.4-2.34Q153.31-2.34 154.1-2.69 154.89-3.03 155.48-3.61 156.06-4.2 156.41-4.99 156.75-5.79 156.75-6.69L156.75-6.69 156.75-8.35 159.75-7.86 159.75-6.86ZM156.75-14.6L156.75-18.31Q156.75-19.21 156.41-20.01 156.06-20.8 155.48-21.39 154.89-21.97 154.1-22.31 153.31-22.66 152.4-22.66L152.4-22.66 150.4-22.66Q149.5-22.66 148.7-22.31 147.91-21.97 147.32-21.39 146.74-20.8 146.4-20.01 146.05-19.21 146.05-18.31L146.05-18.31 146.05-14.6 156.75-14.6ZM182.45-6.86L182.45-6.86Q182.45-5.35 181.88-4 181.31-2.66 180.3-1.66 179.3-0.66 177.96-0.09 176.62 0.49 175.1 0.49L175.1 0.49 173.1 0.49Q171.59 0.49 170.25-0.09 168.9-0.66 167.9-1.66 166.9-2.66 166.33-4 165.75-5.35 165.75-6.86L165.75-6.86 165.75-35.01 168.76-35.01 168.76-22.9Q169.78-24.12 171.22-24.8 172.66-25.49 174.35-25.49L174.35-25.49 175.1-25.49Q176.62-25.49 177.96-24.91 179.3-24.34 180.3-23.34 181.31-22.34 181.88-21 182.45-19.65 182.45-18.14L182.45-18.14 182.45-6.86ZM179.45-6.69L179.45-18.31Q179.45-19.21 179.11-20.01 178.77-20.8 178.18-21.39 177.59-21.97 176.8-22.31 176.01-22.66 175.1-22.66L175.1-22.66 173.1-22.66Q172.2-22.66 171.41-22.31 170.61-21.97 170.03-21.39 169.44-20.8 169.1-20.01 168.76-19.21 168.76-18.31L168.76-18.31 168.76-6.69Q168.76-5.79 169.1-4.99 169.44-4.2 170.03-3.61 170.61-3.03 171.41-2.69 172.2-2.34 173.1-2.34L173.1-2.34 175.1-2.34Q176.01-2.34 176.8-2.69 177.59-3.03 178.18-3.61 178.77-4.2 179.11-4.99 179.45-5.79 179.45-6.69L179.45-6.69ZM216.65 0L215.65 0 213.99-2.54Q212.97-1.15 211.43-0.33 209.89 0.49 208.06 0.49L208.06 0.49 207.3 0.49Q205.79 0.49 204.45-0.09 203.1-0.66 202.1-1.66 201.1-2.66 200.53-4 199.95-5.35 199.95-6.86L199.95-6.86 199.95-18.14Q199.95-19.65 200.53-21 201.1-22.34 202.1-23.34 203.1-24.34 204.45-24.91 205.79-25.49 207.3-25.49L207.3-25.49 208.06-25.49Q209.74-25.49 211.18-24.8 212.62-24.12 213.65-22.9L213.65-22.9 213.65-35.01 216.65-35.01 216.65 0ZM213.65-6.69L213.65-18.31Q213.65-19.21 213.31-20.01 212.97-20.8 212.38-21.39 211.79-21.97 211-22.31 210.21-22.66 209.3-22.66L209.3-22.66 207.3-22.66Q206.4-22.66 205.6-22.31 204.81-21.97 204.23-21.39 203.64-20.8 203.3-20.01 202.96-19.21 202.96-18.31L202.96-18.31 202.96-6.69Q202.96-5.79 203.3-4.99 203.64-4.2 204.23-3.61 204.81-3.03 205.6-2.69 206.4-2.34 207.3-2.34L207.3-2.34 209.3-2.34Q210.21-2.34 211-2.69 211.79-3.03 212.38-3.61 212.97-4.2 213.31-4.99 213.65-5.79 213.65-6.69L213.65-6.69ZM239.35-6.86L239.35-6.86Q239.35-5.35 238.78-4 238.21-2.66 237.21-1.66 236.21-0.66 234.86-0.09 233.52 0.49 232.01 0.49L232.01 0.49 230 0.49Q228.49 0.49 227.15-0.09 225.81-0.66 224.8-1.66 223.8-2.66 223.23-4 222.66-5.35 222.66-6.86L222.66-6.86 222.66-18.14Q222.66-19.65 223.23-21 223.8-22.34 224.8-23.34 225.81-24.34 227.15-24.91 228.49-25.49 230-25.49L230-25.49 232.01-25.49Q233.52-25.49 234.86-24.91 236.21-24.34 237.21-23.34 238.21-22.34 238.78-21 239.35-19.65 239.35-18.14L239.35-18.14 239.35-12.26 225.66-12.26 225.66-6.69Q225.66-5.79 226-4.99 226.34-4.2 226.93-3.61 227.51-3.03 228.31-2.69 229.1-2.34 230-2.34L230-2.34 232.01-2.34Q232.91-2.34 233.7-2.69 234.5-3.03 235.08-3.61 235.67-4.2 236.01-4.99 236.35-5.79 236.35-6.69L236.35-6.69 236.35-8.35 239.35-7.86 239.35-6.86ZM236.35-14.6L236.35-18.31Q236.35-19.21 236.01-20.01 235.67-20.8 235.08-21.39 234.5-21.97 233.7-22.31 232.91-22.66 232.01-22.66L232.01-22.66 230-22.66Q229.1-22.66 228.31-22.31 227.51-21.97 226.93-21.39 226.34-20.8 226-20.01 225.66-19.21 225.66-18.31L225.66-18.31 225.66-14.6 236.35-14.6ZM262.06-25L253.2 0 251.71 0 242.84-25 245.85-25 252.37-6.05 252.46-4.76 252.56-6.05 259.05-25 262.06-25Z" opacity="1" transform="matrix(1,0,0,1,0,0)" fill="black" class="wordmark-text-0" id="SvgjsPath3250"></path></svg></g></svg></g></svg></g></svg></g><g></g></svg></g></svg></g></svg></g><path d="M0 101.016L0 1 244.431 1 244.431 101.016 241.44 101.016 241.44 3.991 2.991 3.991 2.991 101.016 0 101.016M0 146.184L0 246.2 244.431 246.2 244.431 146.184 241.44 146.184 241.44 243.209 2.991 243.209 2.991 146.184 0 146.184" fill="black" stroke="transparent"></path></svg></g><defs><mask></mask></defs></svg><rect width="244.43135999999998" height="247.2" fill="black" stroke="none" visibility="hidden"></rect></g></mask></svg><rect width="244.43135999999998" height="247.2" fill="black" stroke="none" visibility="hidden"></rect></g></mask><linearGradient x1="0.054" x2="0.941" y1="0.5" y2="0.5" id="cb1521a5-8967-4ba0-81b5-bbb02de1dd54"><stop stop-color="#8c8c8c" offset="0"></stop><stop stop-color="#e3e4e5" offset="0.498"></stop><stop stop-color="#8c8c8c" offset="1"></stop></linearGradient></svg><rect width="244.43135999999998" height="247.2" fill="none" stroke="none" visibility="hidden"></rect></g></svg></g></svg>